<svg xmlns="http://www.w3.org/2000/svg" xmlns:xlink="http://www.w3.org/1999/xlink" preserveAspectRatio="xMidYMid" width="88" height="89" viewBox="0 0 88 89">
  <defs>
    <style>
      .cls-1 {
        fill: #3e82f0;
        fill-rule: evenodd;
      }
    </style>
  </defs>
  <path d="M30.500,74.000 C30.500,74.828 29.829,75.500 29.000,75.500 C28.171,75.500 27.500,74.828 27.500,74.000 L27.500,66.500 C27.500,65.672 28.171,65.000 29.000,65.000 C29.829,65.000 30.500,65.672 30.500,66.500 L30.500,74.000 ZM30.500,59.000 C30.500,59.828 29.829,60.500 29.000,60.500 C28.171,60.500 27.500,59.828 27.500,59.000 L27.500,51.500 C27.500,50.672 28.171,50.000 29.000,50.000 C29.829,50.000 30.500,50.672 30.500,51.500 L30.500,59.000 ZM29.000,30.500 C28.171,30.500 27.500,29.829 27.500,29.000 L27.500,21.500 C27.500,20.671 28.171,20.000 29.000,20.000 C29.829,20.000 30.500,20.671 30.500,21.500 L30.500,29.000 C30.500,29.829 29.829,30.500 29.000,30.500 ZM30.500,44.000 C30.500,44.828 29.829,45.500 29.000,45.500 C28.171,45.500 27.500,44.828 27.500,44.000 L27.500,36.500 C27.500,35.671 28.171,35.000 29.000,35.000 C29.829,35.000 30.500,35.671 30.500,36.500 L30.500,44.000 ZM38.000,74.000 C38.000,74.828 37.329,75.500 36.500,75.500 C35.671,75.500 35.000,74.828 35.000,74.000 L35.000,66.500 C35.000,65.672 35.671,65.000 36.500,65.000 C37.329,65.000 38.000,65.672 38.000,66.500 L38.000,74.000 ZM38.000,59.000 C38.000,59.828 37.329,60.500 36.500,60.500 C35.671,60.500 35.000,59.828 35.000,59.000 L35.000,51.500 C35.000,50.672 35.671,50.000 36.500,50.000 C37.329,50.000 38.000,50.672 38.000,51.500 L38.000,59.000 ZM36.500,30.500 C35.671,30.500 35.000,29.829 35.000,29.000 L35.000,21.500 C35.000,20.671 35.671,20.000 36.500,20.000 C37.329,20.000 38.000,20.671 38.000,21.500 L38.000,29.000 C38.000,29.829 37.329,30.500 36.500,30.500 ZM38.000,44.000 C38.000,44.828 37.329,45.500 36.500,45.500 C35.671,45.500 35.000,44.828 35.000,44.000 L35.000,36.500 C35.000,35.671 35.671,35.000 36.500,35.000 C37.329,35.000 38.000,35.671 38.000,36.500 L38.000,44.000 ZM45.500,74.000 C45.500,74.828 44.829,75.500 44.000,75.500 C43.171,75.500 42.500,74.828 42.500,74.000 L42.500,66.500 C42.500,65.672 43.171,65.000 44.000,65.000 C44.829,65.000 45.500,65.672 45.500,66.500 L45.500,74.000 ZM45.500,59.000 C45.500,59.828 44.829,60.500 44.000,60.500 C43.171,60.500 42.500,59.828 42.500,59.000 L42.500,51.500 C42.500,50.672 43.171,50.000 44.000,50.000 C44.829,50.000 45.500,50.672 45.500,51.500 L45.500,59.000 ZM44.000,30.500 C43.171,30.500 42.500,29.829 42.500,29.000 L42.500,21.500 C42.500,20.671 43.171,20.000 44.000,20.000 C44.829,20.000 45.500,20.671 45.500,21.500 L45.500,29.000 C45.500,29.829 44.829,30.500 44.000,30.500 ZM45.500,44.000 C45.500,44.828 44.829,45.500 44.000,45.500 C43.171,45.500 42.500,44.828 42.500,44.000 L42.500,36.500 C42.500,35.671 43.171,35.000 44.000,35.000 C44.829,35.000 45.500,35.671 45.500,36.500 L45.500,44.000 ZM53.000,74.000 C53.000,74.828 52.328,75.500 51.500,75.500 C50.672,75.500 50.000,74.828 50.000,74.000 L50.000,66.500 C50.000,65.672 50.672,65.000 51.500,65.000 C52.328,65.000 53.000,65.672 53.000,66.500 L53.000,74.000 ZM53.000,59.000 C53.000,59.828 52.328,60.500 51.500,60.500 C50.672,60.500 50.000,59.828 50.000,59.000 L50.000,51.500 C50.000,50.672 50.672,50.000 51.500,50.000 C52.328,50.000 53.000,50.672 53.000,51.500 L53.000,59.000 ZM51.500,30.500 C50.672,30.500 50.000,29.829 50.000,29.000 L50.000,21.500 C50.000,20.671 50.672,20.000 51.500,20.000 C52.328,20.000 53.000,20.671 53.000,21.500 L53.000,29.000 C53.000,29.829 52.328,30.500 51.500,30.500 ZM53.000,44.000 C53.000,44.828 52.328,45.500 51.500,45.500 C50.672,45.500 50.000,44.828 50.000,44.000 L50.000,36.500 C50.000,35.671 50.672,35.000 51.500,35.000 C52.328,35.000 53.000,35.671 53.000,36.500 L53.000,44.000 ZM86.500,83.000 L1.500,83.000 C0.671,83.000 -0.000,82.328 -0.000,81.500 C-0.000,80.672 0.671,80.000 1.500,80.000 L7.500,80.000 L7.500,72.707 C4.567,71.569 2.500,67.135 2.500,61.500 C2.500,54.944 5.294,50.000 9.000,50.000 C12.706,50.000 15.500,54.944 15.500,61.500 C15.500,67.135 13.433,71.569 10.500,72.707 L10.500,80.000 L20.000,80.000 L20.000,12.500 L40.000,12.500 L40.000,1.500 C40.000,0.671 40.671,-0.000 41.500,-0.000 C42.329,-0.000 43.000,0.671 43.000,1.500 L43.000,12.500 L63.000,12.500 L63.000,46.500 C63.000,47.328 62.328,48.000 61.500,48.000 C60.672,48.000 60.000,47.328 60.000,46.500 L60.000,15.500 L41.501,15.500 C41.501,15.500 41.500,15.500 41.500,15.500 C41.500,15.500 41.499,15.500 41.499,15.500 L23.000,15.500 L23.000,80.000 L60.000,80.000 L60.000,72.707 C57.066,71.569 55.000,67.135 55.000,61.500 C55.000,54.944 57.794,50.000 61.500,50.000 C65.206,50.000 68.000,54.944 68.000,61.500 C68.000,67.135 65.934,71.569 63.000,72.707 L63.000,80.000 L75.000,80.000 L75.000,72.707 C72.066,71.569 70.000,67.135 70.000,61.500 C70.000,54.944 72.794,50.000 76.500,50.000 C80.206,50.000 83.000,54.944 83.000,61.500 C83.000,67.135 80.934,71.569 78.000,72.707 L78.000,80.000 L86.500,80.000 C87.328,80.000 88.000,80.672 88.000,81.500 C88.000,82.328 87.328,83.000 86.500,83.000 ZM9.000,53.000 C7.939,53.000 6.522,54.833 5.865,57.904 C6.912,57.495 7.755,57.400 8.384,57.628 C9.224,57.931 9.730,58.702 10.219,59.448 C10.322,59.607 10.471,59.833 10.596,60.003 C11.012,59.876 11.703,59.563 12.353,59.210 C11.861,55.361 10.204,53.000 9.000,53.000 ZM12.473,62.488 C11.625,62.851 10.891,63.056 10.308,63.056 C10.103,63.056 9.914,63.034 9.743,62.989 C8.789,62.739 8.215,61.864 7.709,61.093 C7.604,60.933 7.466,60.722 7.348,60.561 C6.908,60.701 6.164,61.055 5.501,61.442 C5.501,61.462 5.500,61.480 5.500,61.500 C5.500,62.002 5.524,62.480 5.560,62.945 C6.482,62.545 7.434,62.321 8.213,62.572 C9.084,62.856 9.637,63.614 10.171,64.347 C10.308,64.534 10.511,64.813 10.663,64.987 C11.035,64.884 11.687,64.576 12.296,64.222 C12.381,63.676 12.441,63.096 12.473,62.488 ZM11.163,67.934 C10.919,67.983 10.677,68.019 10.446,68.019 C10.258,68.019 10.077,68.000 9.905,67.960 C8.923,67.728 8.299,66.871 7.748,66.115 C7.618,65.937 7.424,65.671 7.277,65.500 C6.996,65.582 6.553,65.789 6.103,66.035 C6.824,68.534 8.053,70.000 9.000,70.000 C9.673,70.000 10.488,69.256 11.163,67.934 ZM61.500,53.000 C60.440,53.000 59.025,54.830 58.368,57.897 C59.393,57.496 60.223,57.404 60.844,57.630 C61.680,57.936 62.179,58.709 62.662,59.456 C62.761,59.610 62.904,59.829 63.025,59.997 C63.460,59.858 64.186,59.519 64.845,59.148 C64.344,55.335 62.696,53.000 61.500,53.000 ZM64.977,62.442 C64.093,62.835 63.331,63.056 62.727,63.057 C62.522,63.057 62.333,63.034 62.161,62.988 C61.210,62.735 60.643,61.859 60.143,61.086 C60.042,60.930 59.911,60.727 59.797,60.568 C59.360,60.712 58.633,61.064 58.002,61.439 C58.001,61.460 58.000,61.479 58.000,61.500 C58.000,62.002 58.024,62.480 58.061,62.945 C58.982,62.545 59.933,62.321 60.714,62.573 C61.585,62.857 62.138,63.615 62.673,64.347 C62.809,64.535 63.012,64.813 63.164,64.988 C63.536,64.885 64.188,64.577 64.797,64.223 C64.884,63.663 64.946,63.068 64.977,62.442 ZM63.664,67.934 C63.419,67.983 63.176,68.019 62.946,68.019 C62.759,68.019 62.578,68.000 62.405,67.960 C61.425,67.728 60.800,66.871 60.249,66.115 C60.119,65.937 59.924,65.671 59.777,65.500 C59.496,65.582 59.053,65.789 58.603,66.035 C59.324,68.534 60.553,70.000 61.500,70.000 C62.173,70.000 62.987,69.256 63.664,67.934 ZM76.500,53.000 C75.441,53.000 74.027,54.827 73.369,57.890 C74.830,57.283 75.498,57.539 75.768,57.643 C76.580,57.963 77.049,58.742 77.502,59.498 C77.581,59.629 77.688,59.808 77.788,59.961 C78.245,59.784 78.968,59.409 79.565,59.026 C79.645,58.975 79.728,58.935 79.813,58.900 C79.275,55.233 77.671,53.000 76.500,53.000 ZM79.982,62.252 C78.970,62.781 78.118,63.056 77.442,63.056 C77.234,63.056 77.043,63.032 76.868,62.981 C75.936,62.715 75.425,61.865 74.932,61.044 C74.852,60.913 74.754,60.750 74.661,60.606 C74.228,60.780 73.560,61.140 73.000,61.510 C73.000,62.008 73.025,62.483 73.061,62.946 C73.982,62.546 74.933,62.322 75.714,62.574 C76.585,62.858 77.138,63.616 77.673,64.349 C77.809,64.536 78.012,64.815 78.164,64.989 C78.536,64.886 79.188,64.577 79.797,64.224 C79.893,63.607 79.955,62.947 79.982,62.252 ZM78.664,67.934 C78.419,67.983 78.176,68.019 77.946,68.019 C77.759,68.019 77.578,68.000 77.405,67.960 C76.425,67.728 75.800,66.871 75.249,66.115 C75.119,65.937 74.924,65.671 74.777,65.500 C74.496,65.582 74.053,65.789 73.603,66.035 C74.324,68.534 75.553,70.000 76.500,70.000 C77.173,70.000 77.987,69.256 78.664,67.934 ZM1.500,86.000 L86.500,86.000 C87.328,86.000 88.000,86.672 88.000,87.500 C88.000,88.328 87.328,89.000 86.500,89.000 L1.500,89.000 C0.671,89.000 -0.000,88.328 -0.000,87.500 C-0.000,86.672 0.671,86.000 1.500,86.000 Z" class="cls-1"/>
</svg>
